# xmcd
#
# Track frame offsets: 
#        150
#        24142
#        47275
#        67962
#        93712
#        114052
#        137437
#        160445
#        181775
#        201675
#
# Disc length: 2953 seconds
#
# Revision: 1
# Processed by: cddbd v1.5.2PL0 Copyright (c) Steve Scherf et al.
# Submitted via: ExactAudioCopyFreeDBPlugin 1.0
#
DISCID=790b870a
DTITLE=千堂あきほ - 5月の風のように
DYEAR=1993
DGENRE=JPop
TTITLE0=風のように、波のように
TTITLE1=缶ビールのロンリネス
TTITLE2=よかった 君が元気で
TTITLE3=いちばん遠い恋人
TTITLE4=Marriage Ring
TTITLE5=賛美歌をかえして
TTITLE6=由美子の家に泊まるから
TTITLE7=ジェリービーンズの雨
TTITLE8=シークレットラヴ
TTITLE9=Silk
EXTD=YEAR: 1993
EXTT0=
EXTT1=
EXTT2=
EXTT3=
EXTT4=
EXTT5=
EXTT6=
EXTT7=
EXTT8=
EXTT9=
PLAYORDER=
